<svg width="42" height="42" viewBox="0 0 42 42" fill="none" xmlns="http://www.w3.org/2000/svg">
<path d="M19.2297 0.47208C14.07 1.0059 9.68098 3.10716 6.18154 6.73344C2.47042 10.5802 0.419983 15.6551 0.419983 21.0017C0.419983 23.2894 0.742123 25.2806 1.48762 27.5171C4.05466 35.2527 11.0023 40.7518 19.1448 41.5057C20.4922 41.6329 22.7711 41.5733 24.0168 41.3784C33.0233 39.9974 40.005 33.0158 41.3859 24.0093C41.5808 22.7636 41.64 20.4847 41.5132 19.1373C40.7589 10.9952 35.2602 4.04754 27.5247 1.48008C25.9572 0.963062 24.898 0.726181 23.3222 0.5397C22.3562 0.429661 20.0344 0.387241 19.2297 0.47208ZM23.5082 2.75142C30.9048 3.73422 37.0562 9.25848 38.8861 16.5367C39.5808 19.3158 39.6064 22.3831 38.9537 25.1958C38.3947 27.6104 37.1406 30.2455 35.5899 32.2451C34.9713 33.0414 33.9125 34.2191 33.8108 34.2191C33.7768 34.2191 33.7008 33.9394 33.65 33.592C33.1334 30.2791 30.7272 27.1698 27.3634 25.4583C26.016 24.772 24.7031 24.3482 23.1357 24.0857C21.5258 23.8232 20.4838 23.8232 18.8655 24.0941C14.5866 24.8056 11.1039 27.2038 9.35884 30.6268C8.90146 31.5164 8.50288 32.7113 8.36764 33.592C8.31682 33.9394 8.24038 34.2191 8.20678 34.2191C8.17318 34.2191 7.91026 33.965 7.62214 33.6512C4.97026 30.8213 3.28396 27.305 2.74174 23.5011C2.55526 22.1794 2.55526 19.7816 2.74174 18.5023C3.34318 14.4098 5.1055 10.8767 7.99468 7.98756C12.1208 3.86946 17.7042 1.9803 23.5082 2.75142ZM23.3982 26.3395C27.9648 27.2971 31.3202 30.6944 31.5743 34.6004L31.6251 35.3716L31.0321 35.8462C29.2358 37.2952 27.0925 38.3712 24.898 38.9302C22.4578 39.5489 19.5602 39.5489 17.12 38.9302C14.9087 38.3712 12.7482 37.2779 10.9771 35.8462L10.3925 35.3716L10.4433 34.6004C10.723 30.3811 14.5101 26.8733 19.5686 26.1702C20.4326 26.0513 22.4578 26.1362 23.3982 26.3395Z" fill="#61DAFB"/>
<path d="M19.653 9.18204C17.5434 9.60582 15.8911 10.8935 14.9847 12.8167C14.4933 13.8671 14.3661 14.4942 14.3749 15.8332C14.3749 16.8244 14.4089 17.0789 14.6038 17.7395C15.1884 19.6627 16.3493 21.0441 18.086 21.8488C21.441 23.4247 25.457 22.0693 26.9904 18.8412C27.4734 17.8332 27.6427 17.0449 27.6427 15.7912C27.6511 14.1729 27.2786 12.9696 26.397 11.7327C24.9484 9.69906 22.2121 8.66544 19.653 9.18204ZM22.2881 11.3933C23.5506 11.7663 24.4994 12.5458 25.0164 13.6303C25.3722 14.4014 25.4994 14.952 25.4994 15.8164C25.4994 18.409 23.5931 20.3238 21.0088 20.3238C19.0516 20.3238 17.3993 19.1801 16.7639 17.4006C16.535 16.7567 16.4589 15.5198 16.5946 14.7995C16.9167 13.1389 18.1368 11.8255 19.7635 11.3849C20.3817 11.2241 21.7119 11.2241 22.2881 11.3933Z" fill="#61DAFB"/>
</svg>
