<svg width="42" height="42" viewBox="0 0 42 42" fill="none" xmlns="http://www.w3.org/2000/svg">
<path d="M35.1016 14.8454C35.1466 14.806 35.191 14.7654 35.2338 14.7225L37.0198 12.9365C38.0766 11.8797 38.0766 10.1663 37.0198 9.10946L33.703 5.79261C32.6462 4.7358 30.9327 4.7358 29.876 5.79261L28.09 7.57859C28.0471 7.62149 28.0065 7.66587 27.9671 7.71091L35.1016 14.8454Z" />
<path d="M9.78382 33.0289L13.3112 36.5562L9.15554 37.1844L5 37.8126L5.6282 33.657L6.25639 29.5014L9.78382 33.0289Z" />
<path d="M29.0469 10.7041L10.1665 29.5844L9.14596 28.5638L28.0263 9.68359L27.0057 8.66304L7.10486 28.5638L14.2488 35.7078L34.1497 15.8069L29.0469 10.7041Z" />
</svg>
