<svg width="42" height="42" viewBox="0 0 42 42" fill="none" xmlns="http://www.w3.org/2000/svg">
<g clip-path="url(#clip0)">
<path d="M3.92109 6.03592C2.24766 6.24814 0.794061 7.43334 0.242811 9.04298C0.00984234 9.72537 0.0295299 8.71648 0.0131236 20.7252C0.0065611 28.1367 0.0131236 31.6466 0.0360924 31.8588C0.121405 32.6326 0.416718 33.3868 0.879374 34.0137C1.09594 34.3108 1.54875 34.7614 1.83094 34.9606C2.30344 35.2969 2.92687 35.5809 3.50766 35.718C3.78656 35.7833 3.89156 35.7866 10.9266 35.8127C14.8509 35.829 22.5816 35.8388 28.1039 35.8323L38.1445 35.8225L38.4235 35.754C38.873 35.6429 39.1027 35.5581 39.5227 35.3524C40.8647 34.6928 41.767 33.4129 41.9639 31.8947C41.9902 31.7021 42 28.3718 42 20.6468C41.9967 11.5897 41.9902 9.64048 41.9541 9.49355C41.8163 8.92871 41.5964 8.4259 41.2913 7.9688C41.0583 7.61944 40.6252 7.16561 40.2642 6.89461C39.9755 6.67586 39.2799 6.31671 38.955 6.21549C38.8566 6.18284 38.6433 6.12734 38.4792 6.08816L38.1774 6.01633L21.1641 6.01306C11.4483 6.0098 4.05234 6.01959 3.92109 6.03592ZM29.6625 16.3696C24.1566 21.8483 21.5545 24.4179 21.443 24.4832C21.2166 24.6138 20.9508 24.617 20.7309 24.4864C20.6358 24.4309 17.6203 21.4565 12.5048 16.3729L4.42969 8.3508H21.0722H37.718L29.6625 16.3696ZM39.736 20.699L39.7195 31.8751L39.6474 32.1265C39.457 32.7926 39.1453 33.1648 38.5777 33.4032L38.3414 33.5011L32.6747 27.8396L27.008 22.1781L33.3638 15.8505C36.8583 12.3733 39.7261 9.5262 39.736 9.5262C39.7458 9.5262 39.7458 14.5543 39.736 20.699ZM8.79375 15.844L15.0445 22.0638L9.31219 27.7678L3.57984 33.4717L3.37641 33.377C2.97281 33.1844 2.69391 32.8122 2.56922 32.2996C2.51672 32.0874 2.51016 31.3168 2.50359 20.846C2.49703 14.6751 2.50359 9.62415 2.51672 9.62415C2.53312 9.62415 5.355 12.4223 8.79375 15.844ZM18.6539 25.639C20.1338 27.1246 20.6883 27.66 20.7834 27.6992C20.9475 27.7645 21.2199 27.7645 21.3806 27.6959C21.4725 27.66 22.0599 27.0952 23.4609 25.7043L25.4133 23.7616L30.345 28.6689C33.0553 31.3658 35.2735 33.5795 35.2735 33.5893C35.2735 33.5991 28.8291 33.6056 20.9508 33.6056C13.0725 33.6056 6.62813 33.5991 6.62813 33.5893C6.62813 33.5697 16.613 23.631 16.6359 23.631C16.6458 23.631 17.5547 24.5321 18.6539 25.639Z" />
</g>
<defs>
<clipPath id="clip0">
<rect y="6" width="42" height="29.8421" fill="white"/>
</clipPath>
</defs>
</svg>
