<svg width="176" height="169" viewBox="0 0 176 169" fill="none" xmlns="http://www.w3.org/2000/svg">
<path d="M78.84 75.44C79.424 77.776 79.716 80.696 79.716 84.2C79.716 87.558 79.424 90.478 78.84 92.96C79.424 95.296 79.716 98.216 79.716 101.72C79.716 105.078 79.424 107.998 78.84 110.48H70.08C70.664 112.816 70.956 115.736 70.956 119.24C70.956 122.598 70.664 125.518 70.08 128H17.52C16.936 125.518 16.644 122.598 16.644 119.24C16.644 115.736 16.936 112.816 17.52 110.48H8.76C8.176 107.998 7.884 105.078 7.884 101.72C7.884 98.216 8.176 95.296 8.76 92.96H26.28C26.864 95.296 27.156 98.216 27.156 101.72C27.156 105.078 26.864 107.998 26.28 110.48H61.32C60.736 107.998 60.444 105.078 60.444 101.72C60.444 98.216 60.736 95.296 61.32 92.96C60.736 90.478 60.444 87.558 60.444 84.2C60.444 80.696 60.736 77.776 61.32 75.44H17.52C16.936 72.958 16.644 70.038 16.644 66.68C16.644 63.176 16.936 60.256 17.52 57.92H8.76C8.176 55.438 7.884 52.518 7.884 49.16C7.884 45.656 8.176 42.736 8.76 40.4C8.176 37.918 7.884 34.998 7.884 31.64C7.884 28.136 8.176 25.216 8.76 22.88H17.52C16.936 20.398 16.644 17.478 16.644 14.12C16.644 10.616 16.936 7.696 17.52 5.36H70.08C70.664 7.696 70.956 10.616 70.956 14.12C70.956 17.478 70.664 20.398 70.08 22.88H78.84C79.424 25.216 79.716 28.136 79.716 31.64C79.716 34.998 79.424 37.918 78.84 40.4H61.32C60.736 37.918 60.444 34.998 60.444 31.64C60.444 28.136 60.736 25.216 61.32 22.88H26.28C26.864 25.216 27.156 28.136 27.156 31.64C27.156 34.998 26.864 37.918 26.28 40.4C26.864 42.736 27.156 45.656 27.156 49.16C27.156 52.518 26.864 55.438 26.28 57.92H70.08C70.664 60.256 70.956 63.176 70.956 66.68C70.956 70.038 70.664 72.958 70.08 75.44H78.84ZM166.526 57.92C167.11 60.256 167.402 63.176 167.402 66.68C167.402 70.038 167.11 72.958 166.526 75.44C167.11 77.776 167.402 80.696 167.402 84.2C167.402 87.558 167.11 90.478 166.526 92.96C167.11 95.296 167.402 98.216 167.402 101.72C167.402 105.078 167.11 107.998 166.526 110.48C167.11 112.816 167.402 115.736 167.402 119.24C167.402 122.598 167.11 125.518 166.526 128H157.766C158.35 130.336 158.642 133.256 158.642 136.76C158.642 140.118 158.35 143.038 157.766 145.52H149.006C149.59 147.856 149.882 150.776 149.882 154.28C149.882 157.638 149.59 160.558 149.006 163.04H113.966C113.382 160.558 113.09 157.638 113.09 154.28C113.09 150.776 113.382 147.856 113.966 145.52H140.246C139.662 143.038 139.37 140.118 139.37 136.76C139.37 133.256 139.662 130.336 140.246 128H149.006C148.422 125.518 148.13 122.598 148.13 119.24C148.13 115.736 148.422 112.816 149.006 110.48H140.246C139.662 107.998 139.37 105.078 139.37 101.72C139.37 98.216 139.662 95.296 140.246 92.96H149.006C148.422 90.478 148.13 87.558 148.13 84.2C148.13 80.696 148.422 77.776 149.006 75.44C148.422 72.958 148.13 70.038 148.13 66.68C148.13 63.176 148.422 60.256 149.006 57.92H120.536C121.12 60.256 121.412 63.176 121.412 66.68C121.412 70.038 121.12 72.958 120.536 75.44H113.966C114.55 77.776 114.842 80.696 114.842 84.2C114.842 87.558 114.55 90.478 113.966 92.96H120.536C121.12 95.296 121.412 98.216 121.412 101.72C121.412 105.078 121.12 107.998 120.536 110.48H140.246C140.83 112.816 141.122 115.736 141.122 119.24C141.122 122.598 140.83 125.518 140.246 128H113.966C113.382 125.518 113.09 122.598 113.09 119.24C113.09 115.736 113.382 112.816 113.966 110.48H103.016C102.432 107.998 102.14 105.078 102.14 101.72C102.14 98.216 102.432 95.296 103.016 92.96H96.4455C95.8615 90.478 95.5695 87.558 95.5695 84.2C95.5695 80.696 95.8615 77.776 96.4455 75.44H103.016C102.432 72.958 102.14 70.038 102.14 66.68C102.14 63.176 102.432 60.256 103.016 57.92H113.966C113.382 55.438 113.09 52.518 113.09 49.16C113.09 45.656 113.382 42.736 113.966 40.4H166.526C167.11 42.736 167.402 45.656 167.402 49.16C167.402 52.518 167.11 55.438 166.526 57.92Z" fill="black"/>
</svg>
