<svg width="42" height="42" viewBox="0 0 42 42" fill="none" xmlns="http://www.w3.org/2000/svg">
<path d="M11.5546 14.0386H33.1788V12.6868C33.1788 11.5712 32.265 10.6593 31.1512 10.6593H22.2261V9.47873C22.2261 7.79897 20.86 6.43822 19.1856 6.43822H13.995C13.1839 6.43822 12.4216 6.75539 11.8448 7.33216C11.268 7.90893 10.9526 8.66584 10.9526 9.47873V10.661H2.02759C0.911986 10.6593 0 11.5712 0 12.6868V30.7947L6.81638 16.9854C7.64364 15.3037 9.68385 14.0386 11.5546 14.0386ZM12.9803 9.47873C12.9803 9.21019 13.0902 8.95602 13.2795 8.76501C13.4687 8.57033 13.7247 8.46405 13.9932 8.46405H19.1839C19.7444 8.46405 20.1968 8.91825 20.1968 9.47873V10.661H12.9804V9.47873H12.9803Z" fill="#4FC08D"/>
<path d="M40.68 16.0626H11.5546C10.4408 16.0626 9.12329 16.8808 8.63483 17.8793L0.802026 33.7468C0.308225 34.7435 0.818236 35.5618 1.93209 35.5618H31.0575C32.1714 35.5618 33.4907 34.7453 33.9809 33.7468L41.8119 17.8793C42.3039 16.8808 41.7975 16.0626 40.68 16.0626Z" fill="#4FC08D"/>
</svg>
