<svg width="128" height="128" viewBox="0 0 128 128" fill="none" xmlns="http://www.w3.org/2000/svg">
<g clip-path="url(#clip0)">
<path d="M90.576 110.328C88.976 110.328 87.152 110.264 85.104 110.136C83.056 110.072 81.392 109.976 80.112 109.848L68.4 104.184L73.2 91.704L88.272 96.6C96.784 96.6 101.04 93.048 101.04 85.944V84.12L100.08 83.64C99.184 84.536 97.744 85.464 95.76 86.424C93.84 87.32 90.8 87.768 86.64 87.768C83.632 87.768 80.72 87.032 77.904 85.56C75.088 84.024 72.784 81.592 70.992 78.264C69.264 74.936 68.4 70.616 68.4 65.304C68.4 59.352 69.296 54.584 71.088 51C72.88 47.352 75.152 44.696 77.904 43.032C80.72 41.368 83.632 40.536 86.64 40.536C89.968 40.536 92.688 41.016 94.8 41.976C96.976 42.936 98.416 43.864 99.12 44.76V41.592H116.496L117.456 47.352L116.4 53.112L116.496 86.904C116.496 92.408 115.408 96.888 113.232 100.344C111.12 103.8 108.112 106.328 104.208 107.928C100.368 109.528 95.824 110.328 90.576 110.328ZM93.84 74.232C94.992 74.232 96.048 74.072 97.008 73.752C97.968 73.432 98.672 73.144 99.12 72.888V54.936C98.864 54.744 98.384 54.552 97.68 54.36C96.976 54.168 96.016 54.072 94.8 54.072C92.304 54.072 90.32 54.872 88.848 56.472C87.376 58.072 86.64 60.664 86.64 64.248C86.64 67.768 87.344 70.328 88.752 71.928C90.16 73.464 91.856 74.232 93.84 74.232Z" fill="#444444"/>
<path d="M35.76 87.96C32.24 87.96 28.912 87.64 25.776 87C22.64 86.296 19.92 85.464 17.616 84.504C15.312 83.544 13.616 82.648 12.528 81.816V64.632C15.6 66.36 19.472 67.992 24.144 69.528C28.816 71 34 71.736 39.696 71.736C42 71.736 43.696 71.448 44.784 70.872C45.936 70.232 46.512 69.144 46.512 67.608C46.512 65.944 45.232 64.568 42.672 63.48C40.176 62.328 36.208 60.92 30.768 59.256C26.544 57.912 22.928 56.44 19.92 54.84C16.976 53.176 14.704 51.128 13.104 48.696C11.568 46.2 10.8 43.032 10.8 39.192C10.8 35.224 11.824 31.64 13.872 28.44C15.92 25.24 19.12 22.712 23.472 20.856C27.824 19 33.392 18.072 40.176 18.072C42.224 18.072 44.4 18.168 46.704 18.36C49.072 18.488 50.96 18.68 52.368 18.936L63.216 26.904L59.472 38.616L36.72 32.376C34.096 32.376 32.144 32.92 30.864 34.008C29.648 35.096 29.04 36.408 29.04 37.944C29.04 39.8 30.096 41.272 32.208 42.36C34.32 43.448 37.36 44.536 41.328 45.624C47.6 47.352 52.464 49.272 55.92 51.384C59.376 53.496 61.808 55.896 63.216 58.584C64.624 61.208 65.328 64.184 65.328 67.512C65.328 73.656 62.864 78.616 57.936 82.392C53.008 86.104 45.616 87.96 35.76 87.96Z" fill="#444444"/>
</g>
<defs>
<!-- <clipPath id="clip0">
<rect width="128" height="128" fill="white"/>
</clipPath> -->
</defs>
</svg>
